<?xml version="1.0" encoding="utf-8"?>
<svg viewBox="179.6555 126.78 133.35 74.2896" width="133.35" height="74.2896" xmlns="http://www.w3.org/2000/svg">
    <g transform="matrix(1, 0, 0, 1, 182.38380432128906, 129.75050354003906)">
        <g transform="scale(1)"/>
    </g>
    <path fill="#0BBF64" d="M 281.575 141.792 L 286.863 134.129 L 283.357 129.022 C 282.881 128.328 282.198 127.98 281.307 127.98 C 280.415 127.98 279.733 128.328 279.257 129.022 L 273.434 137.518 L 281.575 141.792 Z M 304.57 155.97 L 299.281 148.256 L 307.541 144.086 L 311.343 149.662 C 311.779 150.253 312.016 150.913 312.056 151.644 C 312.096 152.373 311.917 153.05 311.522 153.676 C 311.126 154.371 310.541 154.927 309.769 155.344 C 308.996 155.761 308.154 155.97 307.243 155.97 L 304.57 155.97 Z M 297.736 170.564 L 288.229 162.224 L 297.736 153.885 L 297.736 158.055 L 309.026 158.055 L 305.579 164.1 C 305.144 164.795 304.55 165.352 303.797 165.769 C 303.044 166.185 302.211 166.393 301.302 166.393 L 297.736 166.393 L 297.736 170.564 Z M 274.741 166.393 C 273.949 166.393 273.226 166.212 272.572 165.847 C 271.919 165.482 271.434 165.004 271.116 164.413 C 270.8 163.857 270.651 163.275 270.671 162.668 C 270.691 162.059 270.88 161.495 271.235 160.973 L 273.256 158.055 L 283.476 158.055 L 283.476 166.393 L 274.741 166.393 Z M 268.859 160.452 L 264.996 153.676 C 264.641 153.05 264.472 152.382 264.491 151.669 C 264.511 150.957 264.738 150.288 265.174 149.662 L 266.125 148.256 L 262.085 146.119 L 275.097 143.25 L 278.365 154.718 L 274.265 152.53 L 268.859 160.452 Z M 300.945 142.626 L 287.933 139.759 L 292.032 137.623 L 284.604 126.78 L 292.983 126.78 C 293.814 126.78 294.597 126.963 295.329 127.328 C 296.062 127.693 296.647 128.188 297.083 128.813 L 300.172 133.349 L 304.212 131.159 L 300.945 142.626 Z" style=""/>
    <g transform="matrix(1, 0, 0, 1, 102.03548431396484, 166.8895721435547)">
        <g transform="scale(1)">
            <path d="M 93.25 0.33 C 90.93 0.33 88.843 -0.067 86.99 -0.86 C 85.13 -1.653 83.66 -2.797 82.58 -4.29 C 81.493 -5.783 80.937 -7.547 80.91 -9.58 L 88.06 -9.58 C 88.153 -8.213 88.637 -7.133 89.51 -6.34 C 90.383 -5.547 91.583 -5.15 93.11 -5.15 C 94.67 -5.15 95.893 -5.523 96.78 -6.27 C 97.673 -7.017 98.12 -7.993 98.12 -9.2 C 98.12 -10.187 97.817 -10.997 97.21 -11.63 C 96.61 -12.27 95.857 -12.77 94.95 -13.13 C 94.043 -13.497 92.793 -13.903 91.2 -14.35 C 89.04 -14.983 87.287 -15.61 85.94 -16.23 C 84.587 -16.85 83.427 -17.79 82.46 -19.05 C 81.487 -20.303 81 -21.977 81 -24.07 C 81 -26.043 81.493 -27.76 82.48 -29.22 C 83.467 -30.687 84.85 -31.807 86.63 -32.58 C 88.41 -33.36 90.443 -33.75 92.73 -33.75 C 96.163 -33.75 98.953 -32.917 101.1 -31.25 C 103.24 -29.583 104.423 -27.257 104.65 -24.27 L 97.31 -24.27 C 97.243 -25.41 96.757 -26.353 95.85 -27.1 C 94.943 -27.847 93.743 -28.22 92.25 -28.22 C 90.95 -28.22 89.91 -27.887 89.13 -27.22 C 88.35 -26.553 87.96 -25.583 87.96 -24.31 C 87.96 -23.423 88.253 -22.687 88.84 -22.1 C 89.433 -21.507 90.167 -21.03 91.04 -20.67 C 91.913 -20.303 93.143 -19.88 94.73 -19.4 C 96.89 -18.767 98.653 -18.133 100.02 -17.5 C 101.387 -16.86 102.563 -15.907 103.55 -14.64 C 104.537 -13.367 105.03 -11.697 105.03 -9.63 C 105.03 -7.85 104.57 -6.197 103.65 -4.67 C 102.723 -3.143 101.37 -1.927 99.59 -1.02 C 97.81 -0.12 95.697 0.33 93.25 0.33 Z M 133.35 -13.78 C 133.35 -12.827 133.287 -11.967 133.16 -11.2 L 113.85 -11.2 C 114.01 -9.293 114.677 -7.8 115.85 -6.72 C 117.03 -5.64 118.477 -5.1 120.19 -5.1 C 122.67 -5.1 124.433 -6.167 125.48 -8.3 L 132.68 -8.3 C 131.92 -5.753 130.46 -3.663 128.3 -2.03 C 126.133 -0.39 123.477 0.43 120.33 0.43 C 117.79 0.43 115.51 -0.133 113.49 -1.26 C 111.477 -2.393 109.903 -3.99 108.77 -6.05 C 107.643 -8.117 107.08 -10.503 107.08 -13.21 C 107.08 -15.943 107.637 -18.34 108.75 -20.4 C 109.863 -22.467 111.42 -24.057 113.42 -25.17 C 115.427 -26.283 117.73 -26.84 120.33 -26.84 C 122.843 -26.84 125.093 -26.3 127.08 -25.22 C 129.067 -24.14 130.607 -22.607 131.7 -20.62 C 132.8 -18.633 133.35 -16.353 133.35 -13.78 Z M 113.9 -15.68 L 126.44 -15.68 C 126.407 -17.4 125.787 -18.777 124.58 -19.81 C 123.373 -20.843 121.893 -21.36 120.14 -21.36 C 118.487 -21.36 117.097 -20.86 115.97 -19.86 C 114.843 -18.853 114.153 -17.46 113.9 -15.68 Z M 150.85 -26.79 C 153.997 -26.79 156.537 -25.797 158.47 -23.81 C 160.41 -21.823 161.38 -19.05 161.38 -15.49 L 161.38 0 L 154.71 0 L 154.71 -14.59 C 154.71 -16.683 154.187 -18.297 153.14 -19.43 C 152.087 -20.557 150.653 -21.12 148.84 -21.12 C 147 -21.12 145.547 -20.557 144.48 -19.43 C 143.42 -18.297 142.89 -16.683 142.89 -14.59 L 142.89 0 L 136.21 0 L 136.21 -26.41 L 142.89 -26.41 L 142.89 -23.12 C 143.777 -24.267 144.91 -25.163 146.29 -25.81 C 147.677 -26.463 149.197 -26.79 150.85 -26.79 Z M 175.83 0.43 C 173.67 0.43 171.73 0.04 170.01 -0.74 C 168.297 -1.52 166.94 -2.577 165.94 -3.91 C 164.94 -5.243 164.39 -6.72 164.29 -8.34 L 171.01 -8.34 C 171.143 -7.327 171.647 -6.487 172.52 -5.82 C 173.393 -5.147 174.48 -4.81 175.78 -4.81 C 177.053 -4.81 178.047 -5.067 178.76 -5.58 C 179.473 -6.087 179.83 -6.737 179.83 -7.53 C 179.83 -8.39 179.393 -9.033 178.52 -9.46 C 177.647 -9.893 176.257 -10.363 174.35 -10.87 C 172.383 -11.343 170.77 -11.837 169.51 -12.35 C 168.257 -12.857 167.177 -13.633 166.27 -14.68 C 165.363 -15.733 164.91 -17.15 164.91 -18.93 C 164.91 -20.39 165.333 -21.723 166.18 -22.93 C 167.02 -24.137 168.227 -25.09 169.8 -25.79 C 171.373 -26.49 173.223 -26.84 175.35 -26.84 C 178.497 -26.84 181.01 -26.053 182.89 -24.48 C 184.763 -22.907 185.793 -20.787 185.98 -18.12 L 179.6 -18.12 C 179.5 -19.167 179.06 -20 178.28 -20.62 C 177.507 -21.24 176.467 -21.55 175.16 -21.55 C 173.953 -21.55 173.023 -21.327 172.37 -20.88 C 171.723 -20.433 171.4 -19.813 171.4 -19.02 C 171.4 -18.133 171.843 -17.46 172.73 -17 C 173.623 -16.533 175.007 -16.063 176.88 -15.59 C 178.787 -15.11 180.36 -14.617 181.6 -14.11 C 182.84 -13.603 183.913 -12.817 184.82 -11.75 C 185.72 -10.683 186.187 -9.277 186.22 -7.53 C 186.22 -6.003 185.8 -4.637 184.96 -3.43 C 184.12 -2.223 182.913 -1.28 181.34 -0.6 C 179.767 0.087 177.93 0.43 175.83 0.43 Z M 214.26 -13.78 C 214.26 -12.827 214.197 -11.967 214.07 -11.2 L 194.76 -11.2 C 194.92 -9.293 195.587 -7.8 196.76 -6.72 C 197.933 -5.64 199.38 -5.1 201.1 -5.1 C 203.58 -5.1 205.343 -6.167 206.39 -8.3 L 213.59 -8.3 C 212.823 -5.753 211.36 -3.663 209.2 -2.03 C 207.04 -0.39 204.387 0.43 201.24 0.43 C 198.7 0.43 196.42 -0.133 194.4 -1.26 C 192.38 -2.393 190.807 -3.99 189.68 -6.05 C 188.553 -8.117 187.99 -10.503 187.99 -13.21 C 187.99 -15.943 188.547 -18.34 189.66 -20.4 C 190.773 -22.467 192.33 -24.057 194.33 -25.17 C 196.33 -26.283 198.633 -26.84 201.24 -26.84 C 203.753 -26.84 206.003 -26.3 207.99 -25.22 C 209.977 -24.14 211.517 -22.607 212.61 -20.62 C 213.71 -18.633 214.26 -16.353 214.26 -13.78 Z M 194.81 -15.68 L 207.34 -15.68 C 207.313 -17.4 206.693 -18.777 205.48 -19.81 C 204.273 -20.843 202.797 -21.36 201.05 -21.36 C 199.397 -21.36 198.007 -20.86 196.88 -19.86 C 195.753 -18.853 195.063 -17.46 194.81 -15.68 Z" fill="#fff" transform="translate(-3.29, 33.75)"/>
            <path d="M 99.658 -31.279 L 87.018 -31.279 L 87.018 -22.939 L 98.228 -22.939 L 98.228 -17.639 L 87.018 -17.639 L 87.018 -8.819 L 99.658 -8.819 L 99.658 -3.389 L 80.348 -3.389 L 80.348 -36.709 L 99.658 -36.709 L 99.658 -31.279 Z M 101.988 -16.599 C 101.988 -19.332 102.545 -21.722 103.658 -23.769 C 104.771 -25.816 106.315 -27.406 108.288 -28.539 C 110.255 -29.666 112.511 -30.229 115.058 -30.229 C 118.331 -30.229 121.041 -29.409 123.188 -27.769 C 125.328 -26.136 126.765 -23.842 127.498 -20.889 L 120.298 -20.889 C 119.918 -22.029 119.275 -22.926 118.368 -23.579 C 117.461 -24.232 116.341 -24.559 115.008 -24.559 C 113.101 -24.559 111.591 -23.866 110.478 -22.479 C 109.365 -21.099 108.808 -19.139 108.808 -16.599 C 108.808 -14.086 109.365 -12.139 110.478 -10.759 C 111.591 -9.372 113.101 -8.679 115.008 -8.679 C 117.708 -8.679 119.471 -9.886 120.298 -12.299 L 127.498 -12.299 C 126.765 -9.439 125.318 -7.169 123.158 -5.489 C 120.998 -3.802 118.298 -2.959 115.058 -2.959 C 112.511 -2.959 110.255 -3.522 108.288 -4.649 C 106.315 -5.782 104.771 -7.372 103.658 -9.419 C 102.545 -11.472 101.988 -13.866 101.988 -16.599 Z M 142.138 -2.959 C 139.591 -2.959 137.301 -3.522 135.268 -4.649 C 133.235 -5.782 131.638 -7.379 130.478 -9.439 C 129.318 -11.506 128.738 -13.892 128.738 -16.599 C 128.738 -19.299 129.335 -21.682 130.528 -23.749 C 131.721 -25.809 133.351 -27.406 135.418 -28.539 C 137.478 -29.666 139.781 -30.229 142.328 -30.229 C 144.868 -30.229 147.171 -29.666 149.238 -28.539 C 151.305 -27.406 152.935 -25.809 154.128 -23.749 C 155.315 -21.682 155.908 -19.299 155.908 -16.599 C 155.908 -13.892 155.298 -11.506 154.078 -9.439 C 152.851 -7.379 151.198 -5.782 149.118 -4.649 C 147.038 -3.522 144.711 -2.959 142.138 -2.959 Z M 142.138 -8.779 C 143.345 -8.779 144.481 -9.072 145.548 -9.659 C 146.608 -10.246 147.458 -11.126 148.098 -12.299 C 148.731 -13.479 149.048 -14.912 149.048 -16.599 C 149.048 -19.106 148.388 -21.036 147.068 -22.389 C 145.748 -23.736 144.135 -24.409 142.228 -24.409 C 140.321 -24.409 138.725 -23.736 137.438 -22.389 C 136.151 -21.036 135.508 -19.106 135.508 -16.599 C 135.508 -14.086 136.135 -12.152 137.388 -10.799 C 138.648 -9.452 140.231 -8.779 142.138 -8.779 Z" fill="#fff"/>
        </g>
    </g>
</svg>